<?xml version="1.0" encoding="UTF-8"?>
<svg version="1.1" xmlns="http://www.w3.org/2000/svg" width="270" height="148">
<path d="M0 0 C89.1 0 178.2 0 270 0 C270 48.84 270 97.68 270 148 C180.9 148 91.8 148 0 148 C0 99.16 0 50.32 0 0 Z " fill="#FCFDFD" transform="translate(0,0)"/>
<path d="M0 0 C4.62 0 9.24 0 14 0 C13.67 0.99 13.34 1.98 13 3 C12.84820986 5.3555448 12.75100711 7.71475123 12.68359375 10.07421875 C12.66281265 10.7580513 12.64203156 11.44188385 12.62062073 12.1464386 C12.55533846 14.3266921 12.49633983 16.50706405 12.4375 18.6875 C12.39429447 20.16732986 12.35067953 21.64714783 12.30664062 23.12695312 C12.19967917 26.75117622 12.09835177 30.37553189 12 34 C12.99 33.67 13.98 33.34 15 33 C16.33140533 32.90011937 17.6671137 32.85183557 19.00219727 32.83886719 C20.2060482 32.82445587 20.2060482 32.82445587 21.43421936 32.80975342 C22.73715187 32.8033786 22.73715187 32.8033786 24.06640625 32.796875 C25.4276487 32.78832489 25.4276487 32.78832489 26.81639099 32.77960205 C28.74729244 32.77014419 30.67821009 32.76361496 32.60913086 32.75976562 C35.49949604 32.75020833 38.38910323 32.71925764 41.27929688 32.6875 C56.21096926 32.60246934 70.93906061 33.53185691 85 39 C85 41.97 85 44.94 85 48 C84.3709375 47.80664062 83.741875 47.61328125 83.09375 47.4140625 C82.2378125 47.15367188 81.381875 46.89328125 80.5 46.625 C79.24703125 46.24214844 79.24703125 46.24214844 77.96875 45.8515625 C74.33740377 44.8099395 70.66498907 43.91624727 67 43 C67 55.87 67 68.74 67 82 C63.37 82 59.74 82 56 82 C56 68.47 56 54.94 56 41 C39.37529363 39.30579324 39.37529363 39.30579324 22.75 38.375 C21.16832031 38.31699219 21.16832031 38.31699219 19.5546875 38.2578125 C17.03659756 38.16624559 14.51847243 38.08021028 12 38 C12.11817586 43.92665216 12.24241928 49.8531341 12.37231445 55.77954102 C12.41565529 57.79610729 12.45733098 59.81271007 12.49731445 61.8293457 C12.55503747 64.72618617 12.61872622 67.62284306 12.68359375 70.51953125 C12.70030624 71.42274612 12.71701874 72.325961 12.73423767 73.25654602 C12.7641555 74.5175135 12.7641555 74.5175135 12.79467773 75.80395508 C12.81799416 76.91315056 12.81799416 76.91315056 12.84178162 78.04475403 C12.93912225 80.2151671 12.93912225 80.2151671 14 83 C9.38 83 4.76 83 0 83 C0.495 81.515 0.495 81.515 1 80 C1.11265547 78.63484686 1.17582586 77.26522788 1.20532227 75.89575195 C1.22526749 75.07512772 1.24521271 74.25450348 1.26576233 73.40901184 C1.28247482 72.52767075 1.29918732 71.64632965 1.31640625 70.73828125 C1.33718735 69.83248825 1.35796844 68.92669525 1.37937927 67.99345398 C1.44476558 65.09987984 1.50370904 62.20621493 1.5625 59.3125 C1.6056956 57.35090207 1.64931023 55.38931332 1.69335938 53.42773438 C1.80043582 48.61858261 1.90173414 43.80933954 2 39 C1.06373779 39.31984863 0.12747559 39.63969727 -0.8371582 39.96923828 C-3.66512977 40.89086668 -6.25536036 41.44028036 -9.1875 41.875 C-15.08096885 42.87883261 -20.45985308 44.79251399 -26 47 C-25.01240196 44.39125046 -24.43182759 43.22818133 -21.92456055 41.90332031 C-20.66832886 41.49484863 -20.66832886 41.49484863 -19.38671875 41.078125 C-18.46826172 40.77519531 -17.54980469 40.47226562 -16.60351562 40.16015625 C-15.64123047 39.85980469 -14.67894531 39.55945312 -13.6875 39.25 C-12.73681641 38.93417969 -11.78613281 38.61835937 -10.80664062 38.29296875 C-6.37045158 36.86074 -2.69872899 35.8132469 2 36 C1.88171792 31.35505142 1.75746726 26.71031535 1.62768555 22.06567383 C1.58437695 20.48563985 1.54269894 18.90556031 1.50268555 17.32543945 C1.44488417 15.05405952 1.3812184 12.78290811 1.31640625 10.51171875 C1.29969376 9.80536789 1.28298126 9.09901703 1.26576233 8.3712616 C1.1740253 5.3335176 0.96792314 2.90376942 0 0 Z " fill="#09447B" transform="translate(26,17)"/>
<path d="M0 0 C0 4.29 0 8.58 0 13 C-0.70125 12.278125 -1.4025 11.55625 -2.125 10.8125 C-10.0071663 3.0184026 -16.51957641 -1.36185825 -27.9375 -1.4375 C-39.14431468 -1.272388 -47.67454107 1.38145526 -55.625 9.5 C-63.41910968 18.90132076 -63.99216636 30.32389591 -63 42 C-61.11753949 52.84586865 -55.90394389 61.54989892 -47 68 C-38.31647437 73.10795625 -26.63860396 73.61774061 -16.90625 71.24609375 C-8.99234935 68.20686986 -4.73818607 63.84404655 0 57 C0.33 57 0.66 57 1 57 C1.41697063 68.3916376 1.41697063 68.3916376 -1.6484375 71.87109375 C-4.0541358 73.26500919 -6.35083901 74.15673509 -9 75 C-9.845625 75.31324219 -10.69125 75.62648438 -11.5625 75.94921875 C-23.67418501 79.75132441 -38.98472376 80.25090298 -50.4609375 74.48046875 C-51.29882812 73.99191406 -52.13671875 73.50335938 -53 73 C-53.81726563 72.54238281 -54.63453125 72.08476563 -55.4765625 71.61328125 C-65.50294988 65.49349631 -71.96058954 56.34458917 -75.3125 45.125 C-77.71881801 33.32932349 -75.55216782 22.39853439 -69.23828125 12.13671875 C-62.05987498 2.54124262 -51.98089205 -4.16640121 -40.1875 -6.57421875 C-25.86649659 -8.48719592 -13.00262133 -6.50131066 0 0 Z " fill="#0B447B" transform="translate(256,23)"/>
<path d="M0 0 C14.52 0 29.04 0 44 0 C44 2.64 44 5.28 44 8 C43.30237549 7.67854004 42.60475098 7.35708008 41.88598633 7.02587891 C38.71850089 5.89993577 36.17826056 5.68507174 32.82421875 5.5859375 C31.25933716 5.53252197 31.25933716 5.53252197 29.6628418 5.47802734 C28.350979 5.44402832 27.03911621 5.4100293 25.6875 5.375 C21.500625 5.25125 17.31375 5.1275 13 5 C13 14.9 13 24.8 13 35 C16.58875 34.855625 20.1775 34.71125 23.875 34.5625 C25.00534668 34.51939697 26.13569336 34.47629395 27.30029297 34.43188477 C28.18861816 34.39377686 29.07694336 34.35566895 29.9921875 34.31640625 C30.90339355 34.27974854 31.81459961 34.24309082 32.75341797 34.20532227 C35.03483481 34.13422935 35.03483481 34.13422935 37 33 C37 35.64 37 38.28 37 41 C36.01 40.505 36.01 40.505 35 40 C33.33434251 39.84777027 31.66343504 39.75082785 29.9921875 39.68359375 C29.1038623 39.64548584 28.21553711 39.60737793 27.30029297 39.56811523 C26.16994629 39.52501221 25.03959961 39.48190918 23.875 39.4375 C20.28625 39.293125 16.6975 39.14875 13 39 C13 51.87 13 64.74 13 78 C19.744375 77.8453125 19.744375 77.8453125 26.625 77.6875 C28.73575928 77.65015747 28.73575928 77.65015747 30.88916016 77.61206055 C32.57211182 77.56239136 32.57211182 77.56239136 34.2890625 77.51171875 C35.43068848 77.48553467 36.57231445 77.45935059 37.74853516 77.43237305 C41.37782519 76.94975759 43.83032026 75.79306283 47 74 C47.66 73.67 48.32 73.34 49 73 C48.34 76.3 47.68 79.6 47 83 C31.49 83 15.98 83 0 83 C0.33 82.01 0.66 81.02 1 80 C1.09584026 77.53666798 1.13647213 75.1019396 1.12939453 72.63867188 C1.13114685 71.89202774 1.13289917 71.14538361 1.13470459 70.37611389 C1.13910741 67.90696898 1.13619062 65.43789565 1.1328125 62.96875 C1.13348599 61.25386542 1.13445639 59.53898093 1.13571167 57.82409668 C1.13718651 54.22956432 1.13504091 50.63505681 1.13037109 47.04052734 C1.12467394 42.43020398 1.12795408 37.81993884 1.13394356 33.20961761 C1.13755491 29.66835083 1.13640793 26.12709788 1.13381577 22.58583069 C1.13314809 20.8857472 1.13396938 19.18566247 1.13629532 17.48558044 C1.13883122 15.11079577 1.13496796 12.73610574 1.12939453 10.36132812 C1.13141876 9.65682022 1.13344299 8.95231232 1.13552856 8.22645569 C1.12235595 5.20087009 0.96533379 2.89600137 0 0 Z " fill="#0E467D" transform="translate(124,17)"/>
<path d="M0 0 C4.62 0 9.24 0 14 0 C14 0.66 14 1.32 14 2 C13.34 2 12.68 2 12 2 C12 11.57 12 21.14 12 31 C8.7 30.67 5.4 30.34 2 30 C1.97494385 29.23333008 1.9498877 28.46666016 1.92407227 27.67675781 C1.80798577 24.20100717 1.68531634 20.72551908 1.5625 17.25 C1.52318359 16.0434375 1.48386719 14.836875 1.44335938 13.59375 C1.40146484 12.43359375 1.35957031 11.2734375 1.31640625 10.078125 C1.27974854 9.00981445 1.24309082 7.94150391 1.20532227 6.84082031 C1.06559539 3.77513516 1.06559539 3.77513516 0 0 Z " fill="#003F78" transform="translate(81,17)"/>
<path d="M0 0 C1 3 1 3 -1 10 C-16.51 10 -32.02 10 -48 10 C-47.67 9.34 -47.34 8.68 -47 8 C-40.07 8 -33.14 8 -26 8 C-26 7.34 -26 6.68 -26 6 C-24.69804687 5.89042969 -23.39609375 5.78085938 -22.0546875 5.66796875 C-20.32806654 5.50844399 -18.60150709 5.34825249 -16.875 5.1875 C-16.0190625 5.11724609 -15.163125 5.04699219 -14.28125 4.97460938 C-9.08981371 4.47543281 -3.89500619 3.89500619 0 0 Z " fill="#295184" transform="translate(172,90)"/>
<path d="M0 0 C2.97 0 5.94 0 9 0 C12 3 12 3 12.0390625 5.0859375 C11.90242187 5.84132813 11.76578125 6.59671875 11.625 7.375 C11.09462873 10.87088803 10.99819945 13.54935367 12 17 C10.125 16.875 10.125 16.875 8 16 C6.75 12.9375 6.75 12.9375 6 10 C5.01 10 4.02 10 3 10 C3 12.64 3 15.28 3 18 C2.01 18 1.02 18 0 18 C0 12.06 0 6.12 0 0 Z " fill="#2B5485" transform="translate(141,114)"/>
<path d="M0 0 C8 0 8 0 10.5 1.5 C10.995 1.995 11.49 2.49 12 3 C11.6875 5.875 11.6875 5.875 11 9 C7.77208445 11.1519437 6.71599191 11.20086443 3 11 C3 12.98 3 14.96 3 17 C2.01 17 1.02 17 0 17 C0 11.39 0 5.78 0 0 Z " fill="#264F83" transform="translate(97,114)"/>
<path d="M0 0 C1.90722656 0.27514648 1.90722656 0.27514648 4 1 C5.12684953 3.73112741 5.98163314 6.2330736 6.75 9.0625 C6.97042969 9.82111328 7.19085938 10.57972656 7.41796875 11.36132812 C7.96048899 13.23656113 8.48223106 15.11778259 9 17 C8.01 17 7.02 17 6 17 C5.67 16.34 5.34 15.68 5 15 C2.67843403 14.59270772 0.3431213 14.25561323 -2 14 C-2 14.99 -2 15.98 -2 17 C-2.99 17 -3.98 17 -5 17 C-4.54619105 15.10307857 -4.08675008 13.20750405 -3.625 11.3125 C-3.36976562 10.25675781 -3.11453125 9.20101562 -2.8515625 8.11328125 C-2.08094511 5.29593234 -1.14501457 2.68331675 0 0 Z " fill="#59799F" transform="translate(122,114)"/>
<path d="M0 0 C0.66 0.33 1.32 0.66 2 1 C1.67 1.99 1.34 2.98 1 4 C-0.98 4 -2.96 4 -5 4 C-4.67 4.99 -4.34 5.98 -4 7 C-0.99152582 8.22520264 -0.99152582 8.22520264 2 9 C2.75 11.25 2.75 11.25 3 14 C1.4375 16.3125 1.4375 16.3125 -1 18 C-4.14522722 18.31452272 -6.15916359 18.42041821 -9 17 C-8.67 15.68 -8.34 14.36 -8 13 C-7.05125 13.165 -6.1025 13.33 -5.125 13.5 C-2.19831099 14.0526635 -2.19831099 14.0526635 0 14 C-0.64067976 10.91240441 -0.64067976 10.91240441 -2.84765625 10.05078125 C-3.57855469 9.80714844 -4.30945313 9.56351563 -5.0625 9.3125 C-5.79597656 9.06113281 -6.52945313 8.80976562 -7.28515625 8.55078125 C-7.85105469 8.36902344 -8.41695312 8.18726562 -9 8 C-9.22223194 5.25913944 -9.34781139 3.56036279 -7.875 1.1875 C-5.18909098 -0.51357571 -3.11342901 -0.26497268 0 0 Z " fill="#1B457D" transform="translate(187,114)"/>
<path d="M0 0 C3 0 6 0 9 0 C8.91621094 0.59167969 8.83242187 1.18335937 8.74609375 1.79296875 C8.19110576 6.09939457 7.76773348 9.75552644 9 14 C7.125 13.75 7.125 13.75 5 13 C3.27898465 10.41847698 3 9.15081975 3 6 C2.01 6 1.02 6 0 6 C0 4.02 0 2.04 0 0 Z " fill="#1C497F" transform="translate(144,117)"/>
<path d="M0 0 C1.32 0 2.64 0 4 0 C4 5.94 4 11.88 4 18 C2.68 18 1.36 18 0 18 C0 12.06 0 6.12 0 0 Z " fill="#4D6995" transform="translate(164,114)"/>
<path d="M0 0 C0.33 0 0.66 0 1 0 C1.02505615 1.25659424 1.0501123 2.51318848 1.07592773 3.80786133 C1.17002295 8.46519357 1.27023859 13.12237741 1.37231445 17.77954102 C1.41565529 19.79610729 1.45733098 21.81271007 1.49731445 23.8293457 C1.55503747 26.72618617 1.61872622 29.62284306 1.68359375 32.51953125 C1.70030624 33.42274612 1.71701874 34.325961 1.73423767 35.25654602 C1.75418289 36.09719101 1.77412811 36.937836 1.79467773 37.80395508 C1.81022202 38.54341873 1.8257663 39.28288239 1.84178162 40.04475403 C1.93912225 42.2151671 1.93912225 42.2151671 3 45 C-1.62 45 -6.24 45 -11 45 C-11 44.34 -11 43.68 -11 43 C-7.37 43 -3.74 43 0 43 C0 28.81 0 14.62 0 0 Z " fill="#1A487E" transform="translate(37,55)"/>
<path d="M0 0 C0.75410156 0.00451172 1.50820312 0.00902344 2.28515625 0.01367188 C4.14847127 0.02546501 6.01174555 0.04340058 7.875 0.0625 C7.875 1.7125 7.875 3.3625 7.875 5.0625 C7.34036133 4.90402588 6.80572266 4.74555176 6.25488281 4.58227539 C3.40795968 3.96049663 0.70972843 3.8460446 -2.203125 3.74609375 C-3.36328125 3.70419922 -4.5234375 3.66230469 -5.71875 3.61914062 C-6.9253125 3.57982422 -8.131875 3.54050781 -9.375 3.5 C-10.59703125 3.45681641 -11.8190625 3.41363281 -13.078125 3.36914062 C-16.0936392 3.26312645 -19.10923448 3.16106064 -22.125 3.0625 C-22.125 2.7325 -22.125 2.4025 -22.125 2.0625 C-21.28195313 2.00191406 -20.43890625 1.94132812 -19.5703125 1.87890625 C-18.47460938 1.79511719 -17.37890625 1.71132813 -16.25 1.625 C-15.15945312 1.54378906 -14.06890625 1.46257813 -12.9453125 1.37890625 C-0.59480152 -0.00667739 -0.59480152 -0.00667739 0 0 Z " fill="#174C80" transform="translate(159.125,18.9375)"/>
<path d="M0 0 C0.6875 2.0625 0.6875 2.0625 1 4 C-5.17053005 5.80391366 -10.71261441 6.30768263 -17.125 6.25 C-18.42630859 6.26160156 -18.42630859 6.26160156 -19.75390625 6.2734375 C-24.56818927 6.25878215 -28.48072346 5.86697981 -33 4 C-29.98968256 3.06576355 -29.13349732 2.95550089 -26 4 C-24.66474283 4.07973476 -23.32587917 4.10771338 -21.98828125 4.09765625 C-21.23095703 4.09443359 -20.47363281 4.09121094 -19.69335938 4.08789062 C-18.90767578 4.07951172 -18.12199219 4.07113281 -17.3125 4.0625 C-16.11657227 4.05573242 -16.11657227 4.05573242 -14.89648438 4.04882812 C-12.93095743 4.0370585 -10.96546915 4.01912348 -9 4 C-9 3.01 -9 2.02 -9 1 C-3.375 -1.125 -3.375 -1.125 0 0 Z " fill="#486A95" transform="translate(242,95)"/>
<path d="M0 0 C2.31 0 4.62 0 7 0 C7 0.66 7 1.32 7 2 C5.68 2 4.36 2 3 2 C3 3.98 3 5.96 3 8 C4.98 8 6.96 8 9 8 C8.67 8.66 8.34 9.32 8 10 C6.35 10 4.7 10 3 10 C3 11.98 3 13.96 3 16 C2.01 16 1.02 16 0 16 C0 10.72 0 5.44 0 0 Z " fill="#073B77" transform="translate(97,115)"/>
<path d="M0 0 C0.66 0.99 1.32 1.98 2 3 C1.67 3.99 1.34 4.98 1 6 C2.32 6 3.64 6 5 6 C5 5.34 5 4.68 5 4 C5.99 4.33 6.98 4.66 8 5 C9.1875 8.0625 9.1875 8.0625 10 11 C9.01 11 8.02 11 7 11 C6.67 10.34 6.34 9.68 6 9 C3.67843403 8.59270772 1.3431213 8.25561323 -1 8 C-1 8.99 -1 9.98 -1 11 C-1.99 11 -2.98 11 -4 11 C-3.5247412 9.35303396 -3.04468109 7.70745272 -2.5625 6.0625 C-2.29566406 5.14597656 -2.02882813 4.22945313 -1.75390625 3.28515625 C-1 1 -1 1 0 0 Z " fill="#13417A" transform="translate(121,120)"/>
<path d="M0 0 C-2.43867835 2.43867835 -3.57618241 2.40239007 -6.9375 2.875 C-12.93753847 3.85913329 -18.36617095 5.7551861 -24 8 C-23.05556206 5.67185065 -22.47391274 4.28758518 -20.29174805 2.96337891 C-18.09534519 2.1661758 -15.90038177 1.37556809 -13.6875 0.625 C-12.92759766 0.34011719 -12.16769531 0.05523437 -11.38476562 -0.23828125 C-6.94466254 -1.78903837 -4.29007591 -2.55178168 0 0 Z " fill="#1D427C" transform="translate(24,56)"/>
<path d="M0 0 C4.62 0 9.24 0 14 0 C14 0.66 14 1.32 14 2 C13.34 2 12.68 2 12 2 C12 11.57 12 21.14 12 31 C11.67 31 11.34 31 11 31 C11 21.43 11 11.86 11 2 C7.7 2.33 4.4 2.66 1 3 C0.67 2.01 0.34 1.02 0 0 Z " fill="#355988" transform="translate(81,17)"/>
<path d="M0 0 C1.12535156 -0.01836914 1.12535156 -0.01836914 2.2734375 -0.03710938 C6.44935443 -0.04821554 8.54828964 0.27414482 12.375 2.1875 C7.095 2.1875 1.815 2.1875 -3.625 2.1875 C-1.315 2.8475 0.995 3.5075 3.375 4.1875 C3.375 4.5175 3.375 4.8475 3.375 5.1875 C2.1375 5.22875 0.9 5.27 -0.375 5.3125 C-1.41914063 5.34730469 -1.41914063 5.34730469 -2.484375 5.3828125 C-4.625 5.1875 -4.625 5.1875 -6.59375 4.1875 C-9.02419258 2.99097442 -10.68464479 2.98337191 -13.375 3.0625 C-14.57382813 3.08957031 -14.57382813 3.08957031 -15.796875 3.1171875 C-16.70179688 3.15199219 -16.70179688 3.15199219 -17.625 3.1875 C-12.2713843 -0.38157714 -6.23814393 0.00541506 0 0 Z " fill="#6480A2" transform="translate(227.625,15.8125)"/>
<path d="M0 0 C1.25541557 3.76624671 0.37061958 5.37188934 -1 9 C-4.63 8.67 -8.26 8.34 -12 8 C-10.60307672 5.20615345 -8.56793257 4.91757157 -5.7890625 3.796875 C-3.59949046 2.8216071 -1.83069032 1.53777987 0 0 Z " fill="#1D4F82" transform="translate(172,90)"/>
<path d="M0 0 C0.99 0 1.98 0 3 0 C2.6875 2.375 2.6875 2.375 2 5 C-1.45662331 7.30441554 -2.94857881 7.25860135 -7 7 C-7.66 6.67 -8.32 6.34 -9 6 C-8.67 4.68 -8.34 3.36 -8 2 C-7.05125 2.165 -6.1025 2.33 -5.125 2.5 C-2.19831099 3.0526635 -2.19831099 3.0526635 0 3 C0 2.01 0 1.02 0 0 Z " fill="#103F79" transform="translate(187,125)"/>
<path d="M0 0 C2.27057377 -0.05398987 4.54151288 -0.09278742 6.8125 -0.125 C8.07707031 -0.14820312 9.34164062 -0.17140625 10.64453125 -0.1953125 C14 0 14 0 17 2 C16.01 2 15.02 2 14 2 C14 2.66 14 3.32 14 4 C12.4156683 3.91231752 10.83246433 3.80412671 9.25 3.6875 C7.92742187 3.60048828 7.92742187 3.60048828 6.578125 3.51171875 C3.67696226 2.9358819 2.20774393 1.92403852 0 0 Z " fill="#033875" transform="translate(221,17)"/>
<path d="M0 0 C2 2 2 2 2 4 C-3.28 4 -8.56 4 -14 4 C-14 3.67 -14 3.34 -14 3 C-12.02 3 -10.04 3 -8 3 C-8 2.34 -8 1.68 -8 1 C-1.9453125 0.0234375 -1.9453125 0.0234375 0 0 Z " fill="#013875" transform="translate(232,96)"/>
<path d="M0 0 C0.99 0.33 1.98 0.66 3 1 C4.1875 4.0625 4.1875 4.0625 5 7 C4.01 7 3.02 7 2 7 C1.67 6.34 1.34 5.68 1 5 C-2.02934491 4.34227572 -2.02934491 4.34227572 -5 4 C-4.67 3.34 -4.34 2.68 -4 2 C-2.68 2 -1.36 2 0 2 C0 1.34 0 0.68 0 0 Z " fill="#073A76" transform="translate(126,124)"/>
<path d="M0 0 C1.65 0 3.3 0 5 0 C5.5625 1.9375 5.5625 1.9375 6 4 C5 5 5 5 2.4375 5.0625 C1.2309375 5.0315625 1.2309375 5.0315625 0 5 C0 3.35 0 1.7 0 0 Z " fill="#DEE3EA" transform="translate(144,117)"/>
<path d="M0 0 C1.65 0 3.3 0 5 0 C5.5625 1.9375 5.5625 1.9375 6 4 C5 5 5 5 2.4375 5.0625 C1.2309375 5.0315625 1.2309375 5.0315625 0 5 C0 3.35 0 1.7 0 0 Z " fill="#E1E5EC" transform="translate(100,117)"/>
<path d="M0 0 C0.33 0 0.66 0 1 0 C1 1.98 1 3.96 1 6 C1.99 6.33 2.98 6.66 4 7 C3.01 7 2.02 7 1 7 C1 9.31 1 11.62 1 14 C0.34 14 -0.32 14 -1 14 C-1.18451025 4.58997722 -1.18451025 4.58997722 0 0 Z " fill="#002C6F" transform="translate(143,117)"/>
<path d="M0 0 C-2 2 -2 2 -5.625 2.125 C-6.73875 2.08375 -7.8525 2.0425 -9 2 C-8.67 1.01 -8.34 0.02 -8 -1 C-4.37673261 -2.2077558 -3.35853631 -1.54311128 0 0 Z " fill="#234D82" transform="translate(24,56)"/>
<path d="M0 0 C-0.33 0.99 -0.66 1.98 -1 3 C-3.97 2.67 -6.94 2.34 -10 2 C-6.3558226 -0.4294516 -4.28758728 -0.16179575 0 0 Z " fill="#E5E9EE" transform="translate(94,49)"/>
<path d="M0 0 C1.485 0.99 1.485 0.99 3 2 C3 2.66 3 3.32 3 4 C4.32 4.33 5.64 4.66 7 5 C1.25 5.125 1.25 5.125 -1 4 C-0.67 2.68 -0.34 1.36 0 0 Z " fill="#516D97" transform="translate(179,127)"/>
<path d="M0 0 C0.6875 1.8125 0.6875 1.8125 1 4 C-0.0625 5.8125 -0.0625 5.8125 -2 7 C-5.1875 6.6875 -5.1875 6.6875 -8 6 C-8 5.67 -8 5.34 -8 5 C-4.535 4.505 -4.535 4.505 -1 4 C-0.67 2.68 -0.34 1.36 0 0 Z " fill="#2F5586" transform="translate(108,117)"/>
<path d="M0 0 C0.33 0 0.66 0 1 0 C0.25 6.75 0.25 6.75 -2 9 C-2.6875 6.75 -2.6875 6.75 -3 4 C-1.625 1.6875 -1.625 1.6875 0 0 Z " fill="#395E8C" transform="translate(152,117)"/>
</svg>
